<svg width="100%" height="100%" id="svg" viewBox="0 0 1440 690" xmlns="http://www.w3.org/2000/svg" class="transition duration-300 ease-in-out delay-150"><path d="M 0,700 L 0,105 C 100.44976076555025,107.09569377990431 200.8995215311005,109.19138755980862 286,129 C 371.1004784688995,148.80861244019138 440.8516746411483,186.33014354066987 539,213 C 637.1483253588517,239.66985645933013 763.6937799043061,255.48803827751192 861,264 C 958.3062200956939,272.5119617224881 1026.3732057416269,273.7177033492823 1118,296 C 1209.6267942583731,318.2822966507177 1324.8133971291866,361.6411483253588 1440,405 L 1440,700 L 0,700 Z" stroke="none" stroke-width="0" fill="#7bdcb5" fill-opacity="0.265" class="transition-all duration-300 ease-in-out delay-150 path-0"></path><path d="M 0,700 L 0,245 C 102.22966507177034,252.4641148325359 204.45933014354068,259.9282296650718 307,269 C 409.5406698564593,278.0717703349282 512.3923444976076,288.7511961722488 602,304 C 691.6076555023924,319.2488038277512 767.9712918660288,339.0669856459331 865,364 C 962.0287081339712,388.9330143540669 1079.7224880382776,418.9808612440191 1179,450 C 1278.2775119617224,481.0191387559809 1359.1387559808613,513.0095693779905 1440,545 L 1440,700 L 0,700 Z" stroke="none" stroke-width="0" fill="#7bdcb5" fill-opacity="0.4" class="transition-all duration-300 ease-in-out delay-150 path-1"></path><path d="M 0,700 L 0,385 C 114.76555023923441,405.88995215311 229.53110047846883,426.7799043062201 319,431 C 408.46889952153117,435.2200956937799 472.64114832535904,422.7703349282297 553,434 C 633.358851674641,445.2296650717703 729.9043062200956,480.1387559808612 833,514 C 936.0956937799044,547.8612440191388 1045.7416267942585,580.6746411483255 1148,609 C 1250.2583732057415,637.3253588516745 1345.1291866028707,661.1626794258373 1440,685 L 1440,700 L 0,700 Z" stroke="none" stroke-width="0" fill="#7bdcb5" fill-opacity="0.53" class="transition-all duration-300 ease-in-out delay-150 path-2"></path><path d="M 0,700 L 0,525 C 106.19138755980862,492.11961722488036 212.38277511961724,459.2392344497608 299,477 C 385.61722488038276,494.7607655502392 452.6602870813397,563.1626794258374 544,604 C 635.3397129186603,644.8373205741626 750.976076555024,658.11004784689 856,677 C 961.023923444976,695.88995215311 1055.4354066985645,720.3971291866029 1151,746 C 1246.5645933014355,771.6028708133971 1343.2822966507179,798.3014354066986 1440,825 L 1440,700 L 0,700 Z" stroke="none" stroke-width="0" fill="#7bdcb5" fill-opacity="1" class="transition-all duration-300 ease-in-out delay-150 path-3"></path></svg>